<svg xmlns="http://www.w3.org/2000/svg" width="682" height="113" viewBox="0 0 682 113" fill="none"><g clip-path="url(#clip0)"><path d="M163.269 86.1258C159.958 86.1258 156.879 85.4824 154.03 84.2179C151.182 82.9423 148.696 81.2008 146.585 79.0045C144.473 76.7972 142.812 74.2127 141.613 71.251C140.415 68.2783 139.821 65.1059 139.821 61.7227C139.821 58.3396 140.415 55.1783 141.613 52.2277C142.812 49.2883 144.451 46.7038 146.541 44.5075C148.63 42.3001 151.116 40.5697 153.986 39.2941C156.857 38.0185 159.947 37.3862 163.258 37.3862C166.568 37.3862 169.659 38.0185 172.529 39.2941C175.4 40.5697 177.896 42.3112 180.008 44.5075C182.12 46.7149 183.78 49.2883 184.979 52.2277C186.178 55.1783 186.772 58.3396 186.772 61.7227C186.772 65.1059 186.178 68.2894 184.979 71.251C183.78 74.2237 182.131 76.8083 180.008 79.0045C177.896 81.2119 175.4 82.9423 172.529 84.2179C169.67 85.4935 166.579 86.1258 163.269 86.1258ZM163.269 79.8697C165.798 79.8697 168.086 79.3817 170.132 78.4055C172.177 77.4294 173.926 76.1094 175.378 74.4456C176.83 72.7707 177.94 70.8406 178.721 68.6332C179.502 66.4259 179.898 64.0965 179.898 61.6451C179.898 59.1382 179.502 56.7867 178.721 54.5793C177.94 52.383 176.819 50.4419 175.378 48.7669C173.926 47.1031 172.177 45.7831 170.132 44.8403C168.086 43.8863 165.798 43.4093 163.269 43.4093C160.739 43.4093 158.463 43.8863 156.439 44.8403C154.415 45.7942 152.678 47.1031 151.237 48.7669C149.785 50.4419 148.674 52.3719 147.893 54.5793C147.113 56.7867 146.717 59.1382 146.717 61.6451C146.717 64.1076 147.102 66.437 147.893 68.6332C148.674 70.8406 149.785 72.7707 151.237 74.4456C152.689 76.1094 154.415 77.4405 156.439 78.4055C158.463 79.3817 160.739 79.8697 163.269 79.8697Z" fill="white"></path><path d="M246.953 76.8078C246.447 77.6398 245.666 78.5937 244.61 79.6586C243.554 80.7234 242.268 81.7328 240.75 82.6867C239.232 83.6407 237.483 84.4393 235.504 85.0827C233.524 85.7371 231.346 86.0588 228.949 86.0588C225.55 86.0588 222.438 85.4598 219.633 84.2508C216.829 83.0417 214.409 81.3668 212.397 79.2038C210.373 77.0519 208.8 74.5006 207.667 71.5501C206.546 68.6106 205.974 65.3939 205.974 61.9109C205.974 58.5277 206.535 55.3442 207.667 52.3826C208.789 49.4099 210.373 46.8143 212.397 44.5958C214.42 42.3662 216.84 40.6137 219.677 39.3381C222.504 38.0624 225.638 37.4302 229.092 37.4302C231.533 37.4302 233.711 37.7297 235.647 38.3287C237.582 38.9276 239.265 39.6819 240.717 40.5915C242.169 41.5011 243.411 42.4772 244.445 43.5531C245.479 44.618 246.315 45.6385 246.964 46.6146L242.279 50.6522C241.729 49.8646 241.069 49.0438 240.31 48.1786C239.551 47.3245 238.638 46.548 237.582 45.8492C236.527 45.1504 235.306 44.5736 233.931 44.1077C232.556 43.6419 230.961 43.4089 229.169 43.4089C226.639 43.4089 224.374 43.897 222.372 44.8731C220.37 45.8492 218.666 47.1692 217.269 48.8442C215.861 50.508 214.794 52.4602 214.057 54.6898C213.32 56.9193 212.957 59.282 212.957 61.7889C212.957 64.2957 213.331 66.6473 214.09 68.8547C214.849 71.062 215.916 72.9699 217.302 74.5894C218.677 76.2088 220.359 77.4845 222.339 78.4162C224.319 79.348 226.518 79.8028 228.96 79.8028C231.027 79.8028 232.809 79.5365 234.305 79.0041C235.801 78.4717 237.065 77.8283 238.099 77.0851C239.133 76.342 239.98 75.5877 240.651 74.8223C241.322 74.0569 241.883 73.4247 242.345 72.9144L246.953 76.8078Z" fill="white"></path><path d="M266.969 38.5505H295.938V44.4627H273.59V57.9621H290.417V63.9408H273.59V78.9709H297.588V84.9496H266.969V38.5505Z" fill="white"></path><path d="M333.496 38.5505H340.26L358.264 84.9496H350.885L346.122 72.0049H327.227L322.465 84.9496H315.503L333.496 38.5505ZM344.11 66.37L336.664 45.9935L329.141 66.37H344.11Z" fill="white"></path><path d="M377.172 38.5505H383.859L408.967 74.7891V38.5505H415.445V84.9496H408.824L383.65 48.6334V84.9496H377.161V38.5505H377.172Z" fill="white"></path><path d="M440.905 38.5505H444.49L460.493 66.0927L476.836 38.5505H480.004L482.071 84.9496H478.761L477.177 43.7639L461.318 70.3411H459.184L443.732 43.8416L442.148 84.9496H438.837L440.905 38.5505Z" fill="white"></path><path d="M506.104 38.5505H533.687V41.6786H509.414V59.2044H528.386V62.3324H509.414V81.8105H535.491V84.9385H506.104V38.5505Z" fill="white"></path><path d="M556.134 38.5505H568.683C572.455 38.5505 575.909 39.0053 579.065 39.9038C582.21 40.8023 584.927 42.1999 587.204 44.0745C589.48 45.9491 591.251 48.3561 592.516 51.2734C593.781 54.1907 594.418 57.6737 594.418 61.7112C594.418 65.7488 593.781 69.2207 592.516 72.1491C591.251 75.0664 589.48 77.4845 587.204 79.3813C584.927 81.2781 582.21 82.6868 579.065 83.5853C575.92 84.4948 572.455 84.9385 568.683 84.9385H556.134V38.5505ZM569.376 81.8105C572.642 81.8105 575.59 81.4001 578.24 80.5903C580.88 79.7806 583.145 78.5383 585.037 76.8633C586.918 75.1995 588.369 73.0919 589.381 70.5629C590.393 68.0339 590.899 65.0833 590.899 61.6891C590.899 58.2948 590.382 55.3554 589.348 52.8596C588.314 50.3638 586.841 48.2674 584.938 46.6035C583.024 44.9286 580.715 43.6974 578.009 42.8765C575.293 42.0668 572.235 41.6564 568.837 41.6564H559.455V81.7994H569.376V81.8105Z" fill="white"></path><path d="M616.942 38.5505H620.252V84.9496H616.942V38.5505Z" fill="white"></path><path d="M658.945 38.5505H662.255L681.084 84.9496H677.29L671.285 69.9972H649.629L643.701 84.9496H640.116L658.945 38.5505ZM670.053 66.8581L660.462 42.7878L650.872 66.8581H670.053Z" fill="white"></path><path d="M56.4215 0.0380859C25.6817 0.0380859 0.671875 25.262 0.671875 56.2649C0.671875 87.2679 25.6817 112.492 56.4215 112.492C87.1614 112.492 112.171 87.2679 112.171 56.2649C112.182 25.262 87.1724 0.0380859 56.4215 0.0380859ZM96.7408 63.2531C94.9701 62.3657 92.9904 60.2138 92.5505 57.3964C91.6706 51.7504 96.1139 46.182 100.557 43.7528H95.8939C95.8939 43.7528 95.8939 43.7528 95.8829 43.7528C89.735 43.7528 83.686 47.6684 78.3959 55.0892C69.9823 66.8914 64.5382 64.1737 62.7455 63.2642C60.9748 62.3768 58.9951 60.2249 58.5552 57.4074C57.6753 51.7615 61.4257 46.5148 66.5728 43.7639H61.9096H61.8986C55.7507 43.7639 49.7017 47.6795 44.4225 55.1002C36.009 66.9025 30.5649 64.1848 28.7722 63.2753C27.0015 62.3879 25.0218 60.236 24.5819 57.4185C23.702 51.7726 27.4194 46.5259 32.5995 43.775H27.9363H27.9253C21.7773 43.775 15.7284 47.6906 10.4492 55.1113C8.48057 57.8179 6.69887 59.759 5.07114 61.1345C4.92816 59.5261 4.84018 57.9066 4.84018 56.2649C4.84018 27.5803 27.9803 4.24207 56.4215 4.24207C84.8628 4.24207 108.003 27.5803 108.003 56.2649C108.003 57.6626 107.937 59.038 107.827 60.4135C101.998 65.882 98.1815 63.9852 96.7408 63.2531Z" fill="#05AAB9"></path></g><defs><clipPath id="clip0"><rect width="680.412" height="112.454" fill="white" transform="translate(0.671875 0.0380859)"></rect></clipPath></defs></svg>